<svg width="777" height="213" viewBox="0 0 777 213" xmlns="http://www.w3.org/2000/svg" fill="#34E27A">
<path fill-rule="evenodd" clip-rule="evenodd" d="M59.6818 194.975C43.8938 191.238 31.2238 183.537 24.7788 173.817V164.351C35.9708 172.894 49.5408 179.714 62.3938 183.373C60.6498 186.498 59.6558 190.098 59.6558 193.93C59.6558 194.281 59.6658 194.629 59.6818 194.975ZM137.937 164.351V173.817C131.493 183.538 118.823 191.238 103.034 194.975C103.051 194.629 103.06 194.281 103.06 193.93C103.06 190.098 102.066 186.497 100.323 183.373C113.175 179.714 126.745 172.895 137.937 164.351Z" fill="#3A2F26"/>
<path fill-rule="evenodd" clip-rule="evenodd" d="M72.8228 192.796L68.6949 196.924L78.2948 206.524L94.0219 190.797L89.8939 186.669L78.2948 198.268L72.8228 192.796ZM96.5209 184.366C98.5199 187.303 99.6889 190.849 99.6889 194.669C99.6889 204.794 91.4818 213.001 81.3578 213.001C71.2328 213.001 63.0269 204.794 63.0269 194.669C63.0269 190.849 64.1958 187.303 66.1938 184.366C71.5038 185.63 76.6348 186.318 81.3578 186.318C86.0798 186.317 91.2119 185.629 96.5209 184.366Z" fill="#3A2F26"/>
<path d="M107.703 79.855C114.12 79.855 119.322 85.058 119.322 91.475C119.322 97.891 114.119 103.095 107.703 103.095C101.286 103.095 96.0827 97.891 96.0827 91.475C96.0827 85.059 101.286 79.855 107.703 79.855ZM55.0127 79.855C61.4297 79.855 66.6327 85.058 66.6327 91.475C66.6327 97.891 61.4297 103.095 55.0127 103.095C48.5967 103.095 43.3927 97.891 43.3927 91.475C43.3937 85.059 48.5967 79.855 55.0127 79.855ZM81.3577 168.913C46.5767 168.913 18.4637 145.387 35.3477 124.14C43.2047 114.253 59.1507 106.597 65.8257 103.364C81.5257 95.76 76.9847 76.233 64.7367 76.233C62.9917 76.233 56.9327 76.218 52.5237 76.218C41.1227 76.218 32.2067 74.905 32.2067 56.679H37.9937C40.5407 56.679 41.4297 56.582 41.4297 59.196C41.4297 61.402 41.6167 63.724 43.5267 64.842C44.4867 65.403 46.0867 65.691 48.3757 65.709C50.6457 65.727 59.5497 65.769 65.9997 65.769C73.4887 65.769 78.6467 67.227 81.3607 73.413C84.0737 67.227 89.2317 65.769 96.7217 65.769C103.172 65.769 112.075 65.727 114.345 65.709C116.635 65.691 118.234 65.403 119.194 64.842C121.105 63.724 121.291 61.403 121.291 59.196C121.291 56.582 122.18 56.679 124.727 56.679H130.514C130.514 74.905 121.598 76.218 110.196 76.218C105.787 76.218 99.7277 76.233 97.9837 76.233C85.7347 76.233 81.1937 95.759 96.8947 103.364C103.569 106.597 119.515 114.253 127.372 124.14C144.252 145.386 116.138 168.913 81.3577 168.913ZM138.808 20.395C139.928 29.151 140.448 32.624 141.089 39.738C141.32 42.306 141.765 43.909 139.173 43.224C132.132 41.363 128.713 40.457 121.671 38.596C118.539 37.768 116.097 37.88 117.935 35.318C122.645 28.755 127.523 22.856 134.193 17.914C137.511 15.455 138.309 16.494 138.808 20.395ZM23.0217 27.251C23.2737 25.293 23.5627 23.096 23.9077 20.395C24.4067 16.494 25.2047 15.455 28.5217 17.913C35.1917 22.855 40.0697 28.754 44.7797 35.317C46.6187 37.879 44.1757 37.767 41.0447 38.595C34.0027 40.456 30.5837 41.363 23.5427 43.223C20.9517 43.908 21.3957 42.306 21.6267 39.737C21.7907 37.923 21.9457 36.346 22.1057 34.858L23.0217 27.251ZM104.165 34.743C88.8847 32.876 73.6037 32.969 58.3237 34.743C53.0127 25.545 31.8797 2.9358e-08 22.4187 2.9358e-08C18.3977 2.9358e-08 15.1367 3.25999 15.1367 7.28099L12.4667 27.252L12.0987 30.002L11.1967 36.752L0.227699 118.781C-3.8813 149.507 48.5647 182.514 81.3577 182.514C114.151 182.514 166.597 149.508 162.488 118.781L147.579 7.28099C147.579 3.25999 144.319 2.9358e-08 140.297 2.9358e-08C130.837 -0.000999971 109.475 25.545 104.165 34.743Z" fill="#3A2F26"/>
<path d="M99.2927 121.161C100.981 123.348 100.731 126.621 98.7367 128.472C83.0227 143.036 79.7207 143.062 63.9787 128.472C61.9847 126.622 61.7347 123.348 63.4227 121.161C68.5097 115.585 94.4127 115.812 99.2927 121.161Z" fill="#3A2F26"/>
<path fill-rule="evenodd" clip-rule="evenodd" d="M58.2057 85.9901C59.3187 86.0821 60.4237 87.1681 60.6737 88.4161C60.9237 89.6641 60.2237 90.602 59.1107 90.509C57.9977 90.417 56.8927 89.3311 56.6427 88.0831C56.3927 86.8351 57.0927 85.8981 58.2057 85.9901ZM110.895 85.9901C112.008 86.0821 113.113 87.1681 113.363 88.4161C113.613 89.6641 112.914 90.602 111.8 90.509C110.687 90.417 109.581 89.3311 109.331 88.0831C109.082 86.8351 109.782 85.8981 110.895 85.9901ZM107.703 82.7371C112.529 82.7371 116.44 86.6491 116.44 91.4751C116.44 96.3011 112.528 100.212 107.703 100.212C102.878 100.212 98.9647 96.3001 98.9647 91.4751C98.9647 86.6491 102.877 82.7371 107.703 82.7371ZM55.0126 82.7371C59.8386 82.7371 63.7507 86.6491 63.7507 91.4751C63.7507 96.3011 59.8386 100.212 55.0126 100.212C50.1876 100.212 46.2747 96.3001 46.2747 91.4751C46.2757 86.6491 50.1876 82.7371 55.0126 82.7371Z" fill="#3A2F26"/>
<path d="M51.8997 147.953C51.3527 147 51.6817 145.784 52.6337 145.237C53.5867 144.69 54.8027 145.018 55.3497 145.971C56.1477 147.353 57.4167 148.438 58.8527 149.209C60.5357 150.111 62.4277 150.57 64.0787 150.57C67.3477 150.57 69.2117 149.274 72.2887 148.124C80.9777 144.877 81.4087 144.758 90.0987 148.005C93.1767 149.155 95.3677 150.57 98.6367 150.57C100.288 150.57 102.18 150.112 103.863 149.209C105.3 148.438 106.569 147.353 107.366 145.971C107.913 145.018 109.13 144.69 110.083 145.237C111.035 145.784 111.364 147.001 110.816 147.953C109.616 150.032 107.783 151.623 105.736 152.721C103.454 153.945 100.883 154.567 98.6367 154.567C94.6897 154.567 90.8487 153.131 87.4367 151.856C81.4637 149.625 81.2507 149.625 75.2777 151.856C71.8657 153.131 68.0257 154.567 64.0787 154.567C61.8317 154.567 59.2617 153.945 56.9797 152.721C54.9327 151.623 53.0997 150.031 51.8997 147.953Z" fill="#3A2F26"/>
<path d="M215.933 153.259V59.7421H255.417C256.343 59.7421 257.578 59.7421 259.119 59.8451C260.611 59.8961 261.999 60.0501 263.232 60.2551C268.787 61.1301 273.361 62.9801 276.959 65.7571C280.509 68.5841 283.13 72.1311 284.827 76.3991C286.524 80.6681 287.346 85.3971 287.346 90.6411C287.346 95.8851 286.524 100.614 284.827 104.88C283.079 109.147 280.455 112.694 276.91 115.524C273.311 118.351 268.734 120.15 263.233 121.026C262 121.232 260.612 121.334 259.07 121.436C257.476 121.54 256.293 121.54 255.418 121.54H233.619V153.26H215.933V153.259ZM233.619 105.088H254.647C255.573 105.088 256.549 105.035 257.627 104.932C258.708 104.829 259.686 104.676 260.61 104.418C262.976 103.749 264.825 102.671 266.111 101.128C267.448 99.5861 268.321 97.8901 268.835 95.9871C269.35 94.1341 269.556 92.3351 269.556 90.6401C269.556 88.9431 269.35 87.1431 268.835 85.2921C268.321 83.3901 267.448 81.6921 266.111 80.1511C264.825 78.6071 262.976 77.5281 260.61 76.8601C259.685 76.6011 258.707 76.4501 257.627 76.3471C256.549 76.2931 255.573 76.2421 254.647 76.2421H233.619V105.088ZM329.554 155.212C322.358 155.212 316.033 153.62 310.583 150.534C305.082 147.448 300.814 143.182 297.731 137.731C294.646 132.335 293.051 126.114 293.051 119.07C293.051 111.409 294.593 104.777 297.628 99.0691C300.661 93.4141 304.824 88.9941 310.121 85.8571C315.468 82.7191 321.586 81.1781 328.525 81.1781C335.879 81.1781 342.15 82.8751 347.293 86.3711C352.433 89.8141 356.238 94.6991 358.707 100.971C361.173 107.243 362.048 114.647 361.329 123.131H352.793H343.847H312.076C312.642 127.295 313.978 130.74 316.034 133.311C318.863 136.911 323.025 138.709 328.526 138.709C331.973 138.709 334.954 137.938 337.422 136.447C339.891 134.904 341.74 132.746 343.077 129.865L360.713 134.957C358.09 141.33 353.925 146.318 348.219 149.867C342.562 153.414 336.29 155.212 329.554 155.212ZM343.435 110.022C342.921 106.217 341.943 103.234 340.454 101.178C338.192 98.0411 334.437 96.5001 329.297 96.5001C323.282 96.5001 318.861 98.3001 316.032 101.948C314.386 104.057 313.257 106.73 312.536 110.021H343.435V110.022ZM373.82 153.259V83.1331H389.399V100.254L387.702 98.0421C388.628 95.6261 389.864 93.4151 391.354 91.4101C392.895 89.4571 394.747 87.8111 396.956 86.4761C398.653 85.4471 400.454 84.6221 402.458 84.0591C404.464 83.4411 406.521 83.0811 408.628 82.9281C410.735 82.7731 412.896 82.8761 415.003 83.1321V99.5851C413.048 99.0191 410.788 98.7631 408.218 98.9671C405.646 99.1731 403.331 99.7911 401.224 100.768C399.169 101.744 397.419 102.978 395.982 104.572C394.543 106.166 393.462 108.017 392.742 110.125C391.972 112.284 391.611 114.699 391.611 117.426V153.259H373.82ZM509.652 153.259V111.822C509.652 107.193 508.572 103.543 506.361 100.972C504.203 98.4031 501.168 97.1171 497.312 97.1171C494.845 97.1171 492.685 97.6831 490.886 98.8661C489.087 99.9971 487.646 101.591 486.671 103.646C485.642 105.704 485.128 108.068 485.128 110.792V153.258H467.442V111.821C467.442 107.192 466.364 103.542 464.202 100.971C461.991 98.4021 458.96 97.1161 455.102 97.1161C451.454 97.1161 448.469 98.4021 446.26 100.921C444.049 103.44 442.918 106.731 442.918 110.792V153.258H425.129V83.1321H440.707V90.7931C442.711 88.2741 445.232 86.2171 448.213 84.6221C452.068 82.4661 456.387 81.4351 461.219 81.4351C466.721 81.4351 471.246 82.6171 474.74 84.9321C477.672 86.8851 479.986 89.3531 481.631 92.3331C483.84 89.0441 486.721 86.4211 490.268 84.5191C494.125 82.4651 498.34 81.4351 503.018 81.4351C511.039 81.4351 517.106 83.8001 521.166 88.5291C525.279 93.2601 527.336 99.4831 527.336 107.141V153.258H509.652V153.259ZM543.429 73.3651V57.7861H561.066V73.3651H543.429ZM543.429 153.259V83.1331H561.066V153.259H543.429ZM620.549 153.259C615.664 154.134 610.936 154.544 606.307 154.443C601.629 154.339 597.465 153.517 593.815 151.974C590.165 150.431 587.387 147.966 585.485 144.519C583.737 141.331 582.813 138.091 582.76 134.751C582.658 131.46 582.608 127.706 582.608 123.493V96.7571H570.679V83.1321H582.607V63.6491H600.291V83.1321H620.549V96.7571H600.291V122.462C600.291 125.189 600.344 127.655 600.395 129.816C600.448 132.027 600.858 133.775 601.68 135.06C603.276 137.527 605.743 138.865 609.188 139.07C612.579 139.328 616.383 139.123 620.549 138.556V153.259ZM636.898 153.259V135.573H654.531V153.259H636.898ZM674.789 73.3651V57.7861H692.475V73.3651H674.789ZM674.789 153.259V83.1331H692.475V153.259H674.789ZM741.42 155.212C734.324 155.212 728.154 153.62 722.809 150.431C717.512 147.296 713.348 142.925 710.416 137.372C707.436 131.768 705.945 125.393 705.945 118.196C705.945 110.844 707.486 104.418 710.468 98.8661C713.501 93.3131 717.716 88.9431 723.013 85.8581C728.359 82.7201 734.476 81.1791 741.419 81.1791C748.462 81.1791 754.683 82.7731 760.028 85.9081C765.376 89.0451 769.54 93.4141 772.522 98.9671C775.504 104.52 776.995 110.946 776.995 118.196C776.995 125.446 775.505 131.872 772.472 137.425C769.49 142.976 765.275 147.347 759.925 150.484C754.58 153.621 748.41 155.212 741.42 155.212ZM741.42 138.71C747.074 138.71 751.289 136.757 754.117 132.952C756.894 129.097 758.283 124.212 758.283 118.196C758.283 111.925 756.894 106.988 754.068 103.234C751.187 99.5331 746.972 97.6831 741.42 97.6831C737.563 97.6831 734.375 98.5051 731.908 100.253C729.439 102.001 727.64 104.417 726.457 107.451C725.275 110.535 724.658 114.135 724.658 118.195C724.658 124.467 726.099 129.455 728.926 133.156C731.754 136.861 735.92 138.71 741.42 138.71Z" fill="#3A2F26"/>
</svg>
