<?xml version="1.0" encoding="UTF-8"?>
<!DOCTYPE svg PUBLIC "-//W3C//DTD SVG 1.1//EN" "http://www.w3.org/Graphics/SVG/1.1/DTD/svg11.dtd">
<svg xmlns="http://www.w3.org/2000/svg" version="1.1" width="181px" height="35px" style="shape-rendering:geometricPrecision; text-rendering:geometricPrecision; image-rendering:optimizeQuality; fill-rule:evenodd; clip-rule:evenodd" xmlns:xlink="http://www.w3.org/1999/xlink">
<g><path style="opacity:0.978" fill="#404747" d="M 10.5,-0.5 C 14.8333,-0.5 19.1667,-0.5 23.5,-0.5C 26.7255,1.21311 29.5588,3.54644 32,6.5C 32.6667,7.5 32.6667,8.5 32,9.5C 29.9973,7.07789 27.4973,6.24456 24.5,7C 20.7998,11.0352 16.7998,14.7019 12.5,18C 13.0944,18.4643 13.7611,18.631 14.5,18.5C 14.1667,19.1667 13.8333,19.8333 13.5,20.5C 12.7109,20.7828 12.0442,21.2828 11.5,22C 13.1545,22.6077 14.8211,23.1077 16.5,23.5C 15.8333,24.1667 15.1667,24.8333 14.5,25.5C 14.3893,26.1174 14.056,26.6174 13.5,27C 15.4357,27.813 17.4357,28.313 19.5,28.5C 19.8417,29.3382 20.5084,29.6716 21.5,29.5C 23.2294,30.2362 24.2294,31.5695 24.5,33.5C 23.8333,33.5 23.5,33.8333 23.5,34.5C 19.1667,34.5 14.8333,34.5 10.5,34.5C 5.4177,31.753 1.75103,27.753 -0.5,22.5C -0.5,18.8333 -0.5,15.1667 -0.5,11.5C 1.75103,6.24704 5.4177,2.24704 10.5,-0.5 Z"/></g>
<g><path style="opacity:0.931" fill="#3a4040" d="M 45.5,7.5 C 48.1873,7.33591 50.854,7.50258 53.5,8C 55.607,9.26351 56.607,11.0968 56.5,13.5C 53.9105,13.6038 51.5771,12.9371 49.5,11.5C 44.1667,13.8333 44.1667,16.1667 49.5,18.5C 51.5771,17.0629 53.9105,16.3962 56.5,16.5C 56.607,18.9032 55.607,20.7365 53.5,22C 46.7498,24.2339 42.7498,21.9006 41.5,15C 41.9274,11.9766 43.2607,9.47656 45.5,7.5 Z"/></g>
<g><path style="opacity:0.922" fill="#414747" d="M 58.5,7.5 C 59.8333,7.5 61.1667,7.5 62.5,7.5C 62.5,9.16667 62.5,10.8333 62.5,12.5C 63.8333,12.5 65.1667,12.5 66.5,12.5C 66.5,10.8333 66.5,9.16667 66.5,7.5C 67.5,7.5 68.5,7.5 69.5,7.5C 69.5,12.1667 69.5,16.8333 69.5,21.5C 68.5,21.5 67.5,21.5 66.5,21.5C 66.5,19.8333 66.5,18.1667 66.5,16.5C 65.1667,16.5 63.8333,16.5 62.5,16.5C 61.5489,17.9187 61.2155,19.5853 61.5,21.5C 60.5,21.5 59.5,21.5 58.5,21.5C 58.5,16.8333 58.5,12.1667 58.5,7.5 Z"/></g>
<g><path style="opacity:0.364" fill="#212424" d="M 69.5,7.5 C 70.4872,12.3054 70.8205,17.3054 70.5,22.5C 68.901,22.7678 67.5676,22.4345 66.5,21.5C 67.5,21.5 68.5,21.5 69.5,21.5C 69.5,16.8333 69.5,12.1667 69.5,7.5 Z"/></g>
<g><path style="opacity:0.38" fill="#202323" d="M 73.5,7.5 C 73.5,12.1667 73.5,16.8333 73.5,21.5C 76.2469,21.8134 78.9135,21.48 81.5,20.5C 79.7086,19.8302 78.0419,19.1635 76.5,18.5C 79.2108,18.1849 81.5441,18.8516 83.5,20.5C 84.209,21.404 85.209,21.7373 86.5,21.5C 82.03,22.4861 77.3633,22.8195 72.5,22.5C 72.1795,17.3054 72.5128,12.3054 73.5,7.5 Z"/></g>
<g><path style="opacity:0.901" fill="#434b4a" d="M 73.5,7.5 C 76.1667,7.5 78.8333,7.5 81.5,7.5C 81.5,8.5 81.5,9.5 81.5,10.5C 79.5853,10.2155 77.9187,10.5489 76.5,11.5C 77.5521,13.256 79.2188,13.9227 81.5,13.5C 81.5,14.5 81.5,15.5 81.5,16.5C 79.2188,16.0773 77.5521,16.744 76.5,18.5C 78.0419,19.1635 79.7086,19.8302 81.5,20.5C 78.9135,21.48 76.2469,21.8134 73.5,21.5C 73.5,16.8333 73.5,12.1667 73.5,7.5 Z"/></g>
<g><path style="opacity:0.92" fill="#3d4343" d="M 96.5,20.5 C 95.791,21.404 94.791,21.7373 93.5,21.5C 91.1667,18.8333 88.8333,18.8333 86.5,21.5C 85.209,21.7373 84.209,21.404 83.5,20.5C 87.6552,3.28371 91.9886,3.28371 96.5,20.5 Z M 89.5,13.5 C 90.7759,14.3864 90.7759,15.3864 89.5,16.5C 88.913,15.7666 88.913,14.7666 89.5,13.5 Z"/></g>
<g><path style="opacity:0.903" fill="#414848" d="M 108.5,7.5 C 108.5,8.5 108.5,9.5 108.5,10.5C 107.209,10.2627 106.209,10.596 105.5,11.5C 104.521,14.6248 104.187,17.9581 104.5,21.5C 103.5,21.5 102.5,21.5 101.5,21.5C 101.5,18.1667 101.5,14.8333 101.5,11.5C 100.167,11.5 98.8333,11.5 97.5,11.5C 97.5,10.1667 97.5,8.83333 97.5,7.5C 101.167,7.5 104.833,7.5 108.5,7.5 Z"/></g>
<g><path style="opacity:0.052" fill="#1f2222" d="M 108.5,7.5 C 109.434,8.56764 109.768,9.90097 109.5,11.5C 108.167,11.5 106.833,11.5 105.5,11.5C 106.209,10.596 107.209,10.2627 108.5,10.5C 108.5,9.5 108.5,8.5 108.5,7.5 Z"/></g>
<g><path style="opacity:0.907" fill="#3c4242" d="M 114.5,17.5 C 115.959,17.4326 117.292,17.7659 118.5,18.5C 121.853,18.6547 122.186,17.9881 119.5,16.5C 119.158,15.6618 118.492,15.3284 117.5,15.5C 115.278,15.4413 114.278,14.2747 114.5,12C 114.439,10.2894 115.106,8.95603 116.5,8C 118.833,7.33333 121.167,7.33333 123.5,8C 125.037,9.10963 125.703,10.6096 125.5,12.5C 120.979,12.3262 120.645,12.9929 124.5,14.5C 126.356,21.4747 123.689,23.9747 116.5,22C 114.963,20.8904 114.297,19.3904 114.5,17.5 Z"/></g>
<g><path style="opacity:0.878" fill="#3f4646" d="M 139.5,21.5 C 138.5,21.5 137.5,21.5 136.5,21.5C 136.784,19.5853 136.451,17.9187 135.5,16.5C 134.167,16.5 132.833,16.5 131.5,16.5C 130.549,17.9187 130.216,19.5853 130.5,21.5C 129.5,21.5 128.5,21.5 127.5,21.5C 127.5,16.8333 127.5,12.1667 127.5,7.5C 128.833,7.5 130.167,7.5 131.5,7.5C 131.5,9.16667 131.5,10.8333 131.5,12.5C 132.833,12.5 134.167,12.5 135.5,12.5C 135.5,10.8333 135.5,9.16667 135.5,7.5C 136.833,7.5 138.167,7.5 139.5,7.5C 139.5,12.1667 139.5,16.8333 139.5,21.5 Z"/></g>
<g><path style="opacity:0.931" fill="#404646" d="M 142.5,7.5 C 145.167,7.5 147.833,7.5 150.5,7.5C 150.5,8.5 150.5,9.5 150.5,10.5C 148.901,10.2322 147.568,10.5655 146.5,11.5C 147.183,13.1765 148.517,13.8432 150.5,13.5C 150.5,14.5 150.5,15.5 150.5,16.5C 149.022,16.238 147.689,16.5713 146.5,17.5C 148.045,18.4519 149.712,18.7852 151.5,18.5C 151.5,19.5 151.5,20.5 151.5,21.5C 148.5,21.5 145.5,21.5 142.5,21.5C 142.5,16.8333 142.5,12.1667 142.5,7.5 Z"/></g>
<g><path style="opacity:0.892" fill="#3c4242" d="M 153.5,7.5 C 156.5,7.5 159.5,7.5 162.5,7.5C 162.5,8.83333 162.5,10.1667 162.5,11.5C 155.833,12.1667 155.833,12.8333 162.5,13.5C 162.5,14.5 162.5,15.5 162.5,16.5C 155.833,17.1667 155.833,17.8333 162.5,18.5C 162.5,19.8333 162.5,21.1667 162.5,22.5C 159.5,22.5 156.5,22.5 153.5,22.5C 153.5,17.5 153.5,12.5 153.5,7.5 Z"/></g>
<g><path style="opacity:0.878" fill="#414848" d="M 174.5,7.5 C 174.5,8.5 174.5,9.5 174.5,10.5C 173.209,10.2627 172.209,10.596 171.5,11.5C 170.521,14.6248 170.187,17.9581 170.5,21.5C 169.5,21.5 168.5,21.5 167.5,21.5C 167.5,18.1667 167.5,14.8333 167.5,11.5C 166.167,11.5 164.833,11.5 163.5,11.5C 163.5,10.1667 163.5,8.83333 163.5,7.5C 167.167,7.5 170.833,7.5 174.5,7.5 Z"/></g>
<g><path style="opacity:0.162" fill="#1f2222" d="M 174.5,7.5 C 175.434,8.56764 175.768,9.90097 175.5,11.5C 174.167,11.5 172.833,11.5 171.5,11.5C 172.209,10.596 173.209,10.2627 174.5,10.5C 174.5,9.5 174.5,8.5 174.5,7.5 Z"/></g>
<g><path style="opacity:0.012" fill="#1f2222" d="M 58.5,7.5 C 58.5,12.1667 58.5,16.8333 58.5,21.5C 59.5,21.5 60.5,21.5 61.5,21.5C 61.2155,19.5853 61.5489,17.9187 62.5,16.5C 62.5,18.5 62.5,20.5 62.5,22.5C 60.8333,22.5 59.1667,22.5 57.5,22.5C 57.1795,17.3054 57.5128,12.3054 58.5,7.5 Z"/></g>
<g><path style="opacity:0.012" fill="#202323" d="M 142.5,7.5 C 142.5,12.1667 142.5,16.8333 142.5,21.5C 145.5,21.5 148.5,21.5 151.5,21.5C 148.375,22.4794 145.042,22.8128 141.5,22.5C 141.179,17.3054 141.513,12.3054 142.5,7.5 Z"/></g>
<g><path style="opacity:0.271" fill="#202323" d="M 81.5,7.5 C 82.4345,8.56764 82.7678,9.90097 82.5,11.5C 80.5,11.5 78.5,11.5 76.5,11.5C 77.9187,10.5489 79.5853,10.2155 81.5,10.5C 81.5,9.5 81.5,8.5 81.5,7.5 Z"/></g>
<g><path style="opacity:0.271" fill="#202323" d="M 150.5,7.5 C 151.434,8.56764 151.768,9.90097 151.5,11.5C 149.833,11.5 148.167,11.5 146.5,11.5C 147.568,10.5655 148.901,10.2322 150.5,10.5C 150.5,9.5 150.5,8.5 150.5,7.5 Z"/></g>
<g><path style="opacity:0.137" fill="#212424" d="M 105.5,11.5 C 105.5,15.1667 105.5,18.8333 105.5,22.5C 103.901,22.7678 102.568,22.4345 101.5,21.5C 102.5,21.5 103.5,21.5 104.5,21.5C 104.187,17.9581 104.521,14.6248 105.5,11.5 Z"/></g>
<g><path style="opacity:0.263" fill="#212424" d="M 171.5,11.5 C 171.5,15.1667 171.5,18.8333 171.5,22.5C 169.901,22.7678 168.568,22.4345 167.5,21.5C 168.5,21.5 169.5,21.5 170.5,21.5C 170.187,17.9581 170.521,14.6248 171.5,11.5 Z"/></g>
<g><path style="opacity:0.03" fill="#222525" d="M 117.5,15.5 C 118.492,15.3284 119.158,15.6618 119.5,16.5C 118.662,16.8417 118.328,17.5084 118.5,18.5C 117.292,17.7659 115.959,17.4326 114.5,17.5C 115.5,16.8333 116.5,16.1667 117.5,15.5 Z"/></g>
<g><path style="opacity:0.208" fill="#1b1d1d" d="M 96.5,20.5 C 97.7514,21.472 97.418,22.1386 95.5,22.5C 94.5836,22.4573 93.9169,22.1239 93.5,21.5C 94.791,21.7373 95.791,21.404 96.5,20.5 Z"/></g>
<g><path style="opacity:0.439" fill="#1f2222" d="M 131.5,16.5 C 131.5,18.5 131.5,20.5 131.5,22.5C 129.901,22.7678 128.568,22.4345 127.5,21.5C 128.5,21.5 129.5,21.5 130.5,21.5C 130.216,19.5853 130.549,17.9187 131.5,16.5 Z"/></g>
<g><path style="opacity:0.458" fill="#1f2222" d="M 135.5,16.5 C 136.451,17.9187 136.784,19.5853 136.5,21.5C 137.5,21.5 138.5,21.5 139.5,21.5C 138.432,22.4345 137.099,22.7678 135.5,22.5C 135.5,20.5 135.5,18.5 135.5,16.5 Z"/></g>
<g><path style="opacity:0.917" fill="#373c3c" d="M 14.5,18.5 C 20.7413,20.5671 26.0747,24.0671 30.5,29C 28.9052,31.1019 26.9052,32.6019 24.5,33.5C 24.2294,31.5695 23.2294,30.2362 21.5,29.5C 21.1583,28.6618 20.4916,28.3284 19.5,28.5C 18.3303,26.7215 16.6636,25.7215 14.5,25.5C 15.1667,24.8333 15.8333,24.1667 16.5,23.5C 17.2389,23.631 17.9056,23.4643 18.5,23C 17.0997,21.5619 15.433,20.7286 13.5,20.5C 13.8333,19.8333 14.1667,19.1667 14.5,18.5 Z"/></g>
</svg>
