<svg width="24" height="24" xmlns="http://www.w3.org/2000/svg" fill="#fff" fill-rule="#fff" clip-rule="#fff"><path d="M2.4 24c.479 0 .896-.25 1.106-.632l-.641-.367c-.079.171-.26.274-.475.274-.319 0-.554-.23-.554-.568 0-.338.235-.568.554-.568.215 0 .391.103.475.274l.641-.372c-.21-.377-.631-.627-1.106-.627-.745 0-1.298.564-1.298 1.293 0 .73.553 1.293 1.298 1.293zm11.958 0c.72 0 1.298-.563 1.298-1.293 0-.729-.578-1.293-1.298-1.293-.72 0-1.298.564-1.298 1.293 0 .73.578 1.293 1.298 1.293zm5.019-1.802c0-.088.079-.137.206-.137.162 0 .259.088.328.215l.627-.338c-.206-.347-.558-.524-.955-.524-.509 0-.96.27-.96.804 0 .847 1.205.705 1.205.974 0 .098-.088.152-.265.152-.215 0-.352-.103-.416-.289l-.636.362c.19.397.563.583 1.052.583.529 0 1.019-.24 1.019-.803 0-.906-1.205-.72-1.205-.999zm-14.573 1.802c.72 0 1.298-.563 1.298-1.293 0-.729-.578-1.293-1.298-1.293-.72 0-1.298.564-1.298 1.293 0 .73.578 1.293 1.298 1.293zm16.88-2.517h.504v.705h-.504v.867c0 .21.181.23.504.21v.666c-.96.098-1.239-.191-1.239-.876v-.867h-.392v-.705h.392v-.465l.735-.221v.686zm-20.876 2.448h-.735v-2.448h.735v2.448zm6.322 0h-.735v-2.448h.735v.23c.132-.181.377-.299.7-.299.495 0 .916.353.916 1.014v1.503h-.735v-1.395c0-.304-.191-.446-.426-.446-.269 0-.455.157-.455.505v1.336zm16.135 0h-.734v-2.448h.734v.436c.098-.328.426-.485.735-.485v.832c-.304-.048-.735.074-.735.559v1.106zm-6.581 0h-.735v-2.448h.735v.23c.132-.181.377-.299.7-.299.495 0 .916.353.916 1.014v1.503h-.735v-1.395c0-.304-.191-.446-.426-.446-.269 0-.455.157-.455.505v1.336zm-6.822 0h-.734v-2.448h.734v.225c.113-.166.329-.294.657-.294.289 0 .504.118.641.324.137-.196.363-.324.71-.324.563 0 .931.402.931 1.014v1.503h-.735v-1.439c0-.245-.117-.402-.352-.402-.245 0-.382.172-.382.46v1.381h-.735v-1.439c0-.245-.118-.402-.353-.402-.244 0-.382.172-.382.46v1.381zm4.496-.646c-.318 0-.563-.23-.563-.578 0-.347.245-.578.563-.578.318 0 .563.231.563.578 0 .348-.245.578-.563.578zm-9.554 0c-.318 0-.563-.23-.563-.578 0-.347.245-.578.563-.578.318 0 .563.231.563.578 0 .348-.245.578-.563.578zm-4.363-2.018c.24 0 .44-.2.44-.44s-.2-.441-.44-.441-.441.201-.441.441.201.44.441.44zm16.665-7.216c.003.003.756.906 2.048 2.584.35.454.506.941.506 1.4 0 1.059-.942 1.965-2.142 1.965-1.223 0-1.956-.504-2.946-1.741-1.261-1.579-3.42-4.204-3.423-4.208h5.957zm.851-5.115c2.35 0 4.256 1.906 4.256 4.255 0 1.046-.393 1.991-1.017 2.732-.05-.075-1.364-1.737-2.182-2.767-.479-.605-.91-.816-1.67-.816h-11.301c-.469 0-.852.383-.852.851 0 .469.383.852.852.852h2.437s1.815 2.208 2.789 3.404h-5.226c-2.35 0-4.256-1.906-4.256-4.256 0-2.349 1.906-4.255 4.256-4.255h11.914zm-2.127-8.936c2.111 0 3.83 1.718 3.83 3.83 0 2.111-1.719 3.83-3.83 3.83-2.113 0-3.83-1.719-3.83-3.83 0-2.112 1.717-3.83 3.83-3.83zm-7.307 3.83l1.775 1.775-1.204 1.204-1.775-1.776-1.775 1.776-1.204-1.204 1.776-1.775-1.776-1.776 1.204-1.203 1.775 1.775 1.775-1.775 1.204 1.203-1.775 1.776zm7.307-1.49c-.821 0-1.49.669-1.49 1.49s.669 1.489 1.49 1.489 1.489-.668 1.489-1.489c0-.821-.668-1.49-1.489-1.49z"/></svg>